<svg width="71" height="71" viewBox="0 0 71 71" fill="none" xmlns="http://www.w3.org/2000/svg">
<path d="M35.0198 11.2619C48.1797 11.2386 58.8386 21.8598 58.8619 35.0197C58.8852 48.1797 48.2641 58.8386 35.1041 58.8619C21.9441 58.8852 11.2853 48.2641 11.262 35.1041C11.2386 21.9441 21.8598 11.2853 35.0198 11.2619ZM35.0991 56.0619C46.7191 56.0413 56.0825 46.6447 56.0619 35.0247C56.0413 23.4047 46.6447 14.0413 35.0247 14.0619C23.4047 14.0825 14.0414 23.4791 14.0619 35.0991C14.0825 46.7191 23.4791 56.0825 35.0991 56.0619Z" fill="white"/>
<path d="M23.4377 32.7026L35.0783 44.302L46.6777 32.6614L48.6412 34.6179L35.0852 48.2219L21.4812 34.666L23.4377 32.7026Z" fill="white"/>
<path d="M36.4818 46.2594L33.6818 46.2644L33.6397 22.4644L36.4397 22.4594L36.4818 46.2594Z" fill="white"/>
</svg>
