<svg width="107" height="114" viewBox="0 0 107 114" fill="none" xmlns="http://www.w3.org/2000/svg">
<circle cx="2" cy="2" r="2" fill="#ABB2BF"/>
<circle cx="27.75" cy="2" r="2" fill="#ABB2BF"/>
<circle cx="53.5" cy="2" r="2" fill="#ABB2BF"/>
<circle cx="79.25" cy="2" r="2" fill="#ABB2BF"/>
<circle cx="105" cy="2" r="2" fill="#ABB2BF"/>
<circle cx="2" cy="29.5" r="2" fill="#ABB2BF"/>
<circle cx="27.75" cy="29.5" r="2" fill="#ABB2BF"/>
<circle cx="53.5" cy="29.5" r="2" fill="#ABB2BF"/>
<circle cx="79.25" cy="29.5" r="2" fill="#ABB2BF"/>
<circle cx="105" cy="29.5" r="2" fill="#ABB2BF"/>
<circle cx="2" cy="57" r="2" fill="#ABB2BF"/>
<circle cx="27.75" cy="57" r="2" fill="#ABB2BF"/>
<circle cx="53.5" cy="57" r="2" fill="#ABB2BF"/>
<circle cx="79.25" cy="57" r="2" fill="#ABB2BF"/>
<circle cx="105" cy="57" r="2" fill="#ABB2BF"/>
<circle cx="2" cy="84.5" r="2" fill="#ABB2BF"/>
<circle cx="27.75" cy="84.5" r="2" fill="#ABB2BF"/>
<circle cx="53.5" cy="84.5" r="2" fill="#ABB2BF"/>
<circle cx="79.25" cy="84.5" r="2" fill="#ABB2BF"/>
<circle cx="105" cy="84.5" r="2" fill="#ABB2BF"/>
<circle cx="2" cy="112" r="2" fill="#ABB2BF"/>
<circle cx="27.75" cy="112" r="2" fill="#ABB2BF"/>
<circle cx="53.5" cy="112" r="2" fill="#ABB2BF"/>
<circle cx="79.25" cy="112" r="2" fill="#ABB2BF"/>
<circle cx="105" cy="112" r="2" fill="#ABB2BF"/>
</svg>
