<svg width="24" height="24" viewBox="0 0 24 24" fill="none" xmlns="http://www.w3.org/2000/svg">
<path fill-rule="evenodd" clip-rule="evenodd" d="M10.738 3.25C9.96398 3.25 9.31898 3.841 9.25098 4.612C9.10947 6.22293 9.07373 7.8414 9.14398 9.457L8.89098 9.475L7.40098 9.583C7.18337 9.5989 6.97363 9.67103 6.79227 9.79233C6.61092 9.91363 6.46417 10.08 6.36639 10.275C6.26862 10.47 6.22316 10.6871 6.23449 10.905C6.24581 11.1229 6.31351 11.3341 6.43098 11.518C7.52826 13.2331 8.94089 14.7244 10.594 15.913L11.19 16.342C11.4261 16.5113 11.7094 16.6024 12 16.6024C12.2906 16.6024 12.5738 16.5113 12.81 16.342L13.406 15.913C15.0607 14.7263 16.4736 13.2346 17.569 11.518C17.6864 11.3341 17.7541 11.1229 17.7655 10.905C17.7768 10.6871 17.7313 10.47 17.6336 10.275C17.5358 10.08 17.389 9.91363 17.2077 9.79233C17.0263 9.67103 16.8166 9.5989 16.599 9.583L15.109 9.475L14.856 9.457C14.926 7.842 14.89 6.223 14.749 4.612C14.7169 4.23994 14.5463 3.89348 14.2709 3.64124C13.9955 3.389 13.6354 3.24937 13.262 3.25H10.738ZM10.682 10.115C10.568 8.32763 10.5891 6.5342 10.745 4.75H13.255C13.4112 6.53418 13.4326 8.3276 13.319 10.115C13.3128 10.2141 13.3263 10.3134 13.3588 10.4073C13.3912 10.5011 13.442 10.5875 13.5082 10.6616C13.5743 10.7356 13.6545 10.7958 13.7441 10.8386C13.8336 10.8814 13.9308 10.906 14.03 10.911C14.354 10.927 14.6773 10.947 15 10.971L16.081 11.05C15.1201 12.4634 13.9185 13.6972 12.531 14.695L12.001 15.076L11.469 14.695C10.0814 13.6972 8.87985 12.4634 7.91898 11.05L8.99998 10.97C9.32331 10.9467 9.64664 10.927 9.96998 10.911C10.0692 10.9062 10.1665 10.8816 10.2562 10.8389C10.3459 10.7961 10.4262 10.736 10.4924 10.6619C10.5587 10.5878 10.6096 10.5014 10.6421 10.4075C10.6746 10.3136 10.6882 10.2142 10.682 10.115Z" fill="#C778DD"/>
<path d="M5.75 17C5.75 16.8011 5.67098 16.6103 5.53033 16.4697C5.38968 16.329 5.19891 16.25 5 16.25C4.80109 16.25 4.61032 16.329 4.46967 16.4697C4.32902 16.6103 4.25 16.8011 4.25 17V19C4.25 19.966 5.034 20.75 6 20.75H18C18.4641 20.75 18.9092 20.5656 19.2374 20.2374C19.5656 19.9092 19.75 19.4641 19.75 19V17C19.75 16.8011 19.671 16.6103 19.5303 16.4697C19.3897 16.329 19.1989 16.25 19 16.25C18.8011 16.25 18.6103 16.329 18.4697 16.4697C18.329 16.6103 18.25 16.8011 18.25 17V19C18.25 19.0663 18.2237 19.1299 18.1768 19.1768C18.1299 19.2237 18.0663 19.25 18 19.25H6C5.9337 19.25 5.87011 19.2237 5.82322 19.1768C5.77634 19.1299 5.75 19.0663 5.75 19V17Z" fill="#C778DD"/>
</svg>
