<svg width="62" height="64" viewBox="0 0 62 64" fill="none" xmlns="http://www.w3.org/2000/svg">
<path d="M31 0.5C47.8298 0.5 61.5 14.5879 61.5 32C61.5 49.4121 47.8298 63.5 31 63.5C14.1702 63.5 0.5 49.4121 0.5 32C0.5 14.5879 14.1702 0.5 31 0.5Z" stroke="#C778DD"/>
<path d="M36.125 48.875C36.125 48.875 36.125 44.6188 36.125 43.25C36.125 42.0688 36.4062 39.575 35.1875 38.5625C37.7937 38.3188 39.8375 37.475 41.75 35.75C43.6625 34.025 44.5625 31.4188 44.5625 27.3125C44.5625 24.5 44.0938 22.625 42.6875 20.75C43.2312 19.2875 43.325 17 42.6875 15.125C39.7625 15.125 37.1187 17.1312 36.125 17.9375C35.3938 17.75 33.6312 17 30.5 17C27.3688 17 25.6062 17.75 24.875 17.9375C23.8813 17.1312 21.2375 15.125 18.3125 15.125C17.675 17 17.7688 19.2875 18.3125 20.75C16.9062 22.625 16.4375 24.5 16.4375 27.3125C16.4375 31.4188 17.3375 34.025 19.25 35.75C21.1625 37.475 23.2063 38.3188 25.8125 38.5625C24.5938 39.575 24.875 42.0688 24.875 43.25C24.875 44.6188 24.875 48.875 24.875 48.875" stroke="#E6E6E6" stroke-width="2" stroke-linecap="round" stroke-linejoin="round"/>
<path d="M24.875 45.125C22.2387 45.125 19.5425 44.0694 17.96 42.8975C16.3812 41.7275 15.9125 39.7944 13.625 38.5625" stroke="#E6E6E6" stroke-width="2" stroke-linecap="round" stroke-linejoin="round"/>
</svg>
