<svg width="62" height="64" viewBox="0 0 62 64" fill="none" xmlns="http://www.w3.org/2000/svg">
<path d="M50 21.375C50 19.5187 48.245 18 46.1 18H14.9C12.755 18 11 19.5187 11 21.375V41.625C11 43.4813 12.755 45 14.9 45H46.1C48.245 45 50 43.4813 50 41.625V21.375ZM46.1 21.375L30.5 29.8125L14.9 21.375H46.1ZM46.1 41.625H14.9V24.75L30.5 33.1875L46.1 24.75V41.625Z" fill="white"/>
<path d="M31 0.5C47.8298 0.5 61.5 14.5879 61.5 32C61.5 49.4121 47.8298 63.5 31 63.5C14.1702 63.5 0.5 49.4121 0.5 32C0.5 14.5879 14.1702 0.5 31 0.5Z" stroke="#C778DD"/>
</svg>
