<svg width="115" height="113" viewBox="0 0 115 113" fill="none" xmlns="http://www.w3.org/2000/svg">
<g clip-path="url(#clip0_11_692)">
<path d="M54.055 107.545L54.6351 107.729C56.7684 108.402 58.7831 109.037 60.1283 111.87C60.1624 111.941 60.2098 112.004 60.268 112.055C60.3262 112.105 60.3936 112.142 60.4655 112.163C60.511 112.175 60.5575 112.182 60.6045 112.181C60.7073 112.181 60.8072 112.148 60.893 112.087C61.8651 111.395 62.7808 110.767 63.6503 110.172C65.4719 108.922 67.0454 107.845 68.5484 106.591C73.94 102.192 78.8526 97.1509 83.1932 91.562C88.8971 84.092 94.7949 76.3673 100.341 68.2855C103.812 63.2262 106.763 57.5843 109.255 52.6952C111.747 47.7484 113.213 42.2761 113.552 36.6557C114.172 27.419 112.076 19.1112 107.322 11.9634C102.032 4.00819 95.0431 0.163479 86.5663 0.520372C77.0034 0.92908 68.6191 4.92687 61.6455 12.4032C61.3074 12.7828 60.9948 13.1878 60.7102 13.6152C60.1693 14.387 59.6561 15.1196 58.878 15.4138C50.6209 6.86338 44.3305 3.53918 34.9501 2.7393C25.3232 1.9177 17.5584 5.3051 11.8702 12.8023C9.04714 16.5082 6.57818 20.5119 4.50078 24.7528C0.073039 33.8498 -0.794455 43.5 1.92675 53.4374C4.35365 62.3069 8.35403 70.5864 13.706 77.8164C24.4066 92.3176 37.9824 102.321 54.055 107.545ZM13.7922 26.4077C15.0055 23.8988 16.3598 21.4722 17.8473 19.1414C21.383 13.4916 26.4024 10.6185 32.7932 10.5756C33.5849 10.5703 34.3976 10.6084 35.2313 10.69C43.7739 11.5273 50.6505 15.5352 55.6698 22.6021C56.2727 23.4508 56.9284 24.2359 57.5065 24.9278C57.7419 25.2101 57.9633 25.4754 58.1586 25.7184C58.2399 25.8198 58.3519 25.8868 58.4744 25.9082C60.7819 26.3213 61.7043 25.027 62.3869 23.7856C66.3265 16.6246 72.5068 12.3244 81.8379 10.2534C84.048 9.82686 86.3051 9.75065 88.5367 10.0275C92.0793 10.3639 95.1293 12.2189 97.6031 15.5394C100.422 19.3484 102.11 23.9843 102.445 28.8406C102.979 34.453 102.063 40.113 99.7974 45.1944C98.0909 49.1324 96.1439 52.9438 93.9692 56.603C89.9289 63.12 85.6106 69.6011 81.4354 75.8686L79.9844 78.0492C76.875 82.7214 73.6585 87.4316 70.5488 91.9864C69.4265 93.6299 68.3053 95.274 67.1846 96.9191C66.7011 97.6293 66.1974 98.3252 65.6646 99.0624C65.4887 99.3052 65.3103 99.5524 65.1288 99.8047C63.6168 99.1468 62.1447 98.5038 60.7011 97.8755C57.2939 96.3921 54.0451 94.9772 50.8039 93.5411C41.8331 89.6312 33.6911 83.7965 26.8726 76.3921C19.8813 68.745 15.0151 60.5465 11.997 51.3275C9.24481 42.9184 9.83174 34.7667 13.7922 26.4077Z" fill="#C778DD"/>
</g>
<defs>
<clipPath id="clip0_11_692">
<rect width="113.599" height="111.884" fill="white" transform="matrix(0.999978 -0.00670758 0.007111 0.999975 0 0.761973)"/>
</clipPath>
</defs>
</svg>
