<svg width="62" height="64" viewBox="0 0 62 64" fill="none" xmlns="http://www.w3.org/2000/svg">
<path d="M17.675 23.2531C19.925 23.2531 21.725 21.425 21.725 19.2031C21.725 16.9813 19.8969 15.1531 17.675 15.1531C15.4531 15.1531 13.625 16.9813 13.625 19.2031C13.625 21.425 15.4531 23.2531 17.675 23.2531ZM25.5781 26.3188V48.875H32.5531V37.7375C32.5531 34.7844 33.1156 31.9438 36.7438 31.9438C40.3719 31.9438 40.3719 35.3188 40.3719 37.9063V48.875H47.375V36.5C47.375 30.425 46.0813 25.7563 38.9938 25.7563C35.5906 25.7563 33.3125 27.6125 32.3844 29.3844H32.3V26.2906H25.6063L25.5781 26.3188ZM14.1875 26.3188H21.1906V48.875H14.1875V26.3188Z" fill="#E6E6E6"/>
<path d="M31 0.5C47.8298 0.5 61.5 14.5879 61.5 32C61.5 49.4121 47.8298 63.5 31 63.5C14.1702 63.5 0.5 49.4121 0.5 32C0.5 14.5879 14.1702 0.5 31 0.5Z" stroke="#C778DD"/>
</svg>
