<svg width="165" height="185" viewBox="0 0 165 185" fill="none" xmlns="http://www.w3.org/2000/svg">
<mask id="path-1-inside-1_8_473" fill="white">
<path d="M82 93H41V139H82V185H0V47H82V93Z"/>
</mask>
<path d="M82 93V94H83V93H82ZM41 93V92H40V93H41ZM41 139H40V140H41V139ZM82 139H83V138H82V139ZM82 185V186H83V185H82ZM0 185H-1V186H0V185ZM0 47V46H-1V47H0ZM82 47H83V46H82V47ZM82 93V92H41V93V94H82V93ZM41 93H40V139H41H42V93H41ZM41 139V140H82V139V138H41V139ZM82 139H81V185H82H83V139H82ZM82 185V184H0V185V186H82V185ZM0 185H1V47H0H-1V185H0ZM0 47V48H82V47V46H0V47ZM82 47H81V93H82H83V47H82Z" fill="#C778DD" mask="url(#path-1-inside-1_8_473)"/>
<mask id="path-3-outside-2_8_473" maskUnits="userSpaceOnUse" x="81" y="0" width="84" height="140" fill="black">
<rect fill="white" x="81" width="84" height="140"/>
<path d="M164 139H82V93H123V47H82V1H164V139Z"/>
</mask>
<path d="M164 139V140H165V139H164ZM82 139H81V140H82V139ZM82 93V92H81V93H82ZM123 93V94H124V93H123ZM123 47H124V46H123V47ZM82 47H81V48H82V47ZM82 1V0H81V1H82ZM164 1H165V0H164V1ZM164 139V138H82V139V140H164V139ZM82 139H83V93H82H81V139H82ZM82 93V94H123V93V92H82V93ZM123 93H124V47H123H122V93H123ZM123 47V46H82V47V48H123V47ZM82 47H83V1H82H81V47H82ZM82 1V2H164V1V0H82V1ZM164 1H163V139H164H165V1H164Z" fill="#C778DD" mask="url(#path-3-outside-2_8_473)"/>
</svg>
