<svg width="89" height="117" viewBox="0 0 89 117" fill="none" xmlns="http://www.w3.org/2000/svg">
<mask id="path-1-inside-1_4_227" fill="white">
<path d="M44.5 59H22.25V88H44.5V117H0V30H44.5V59Z"/>
</mask>
<path d="M44.5 59V60H45.5V59H44.5ZM22.25 59V58H21.25V59H22.25ZM22.25 88H21.25V89H22.25V88ZM44.5 88H45.5V87H44.5V88ZM44.5 117V118H45.5V117H44.5ZM0 117H-1V118H0V117ZM0 30V29H-1V30H0ZM44.5 30H45.5V29H44.5V30ZM44.5 59V58H22.25V59V60H44.5V59ZM22.25 59H21.25V88H22.25H23.25V59H22.25ZM22.25 88V89H44.5V88V87H22.25V88ZM44.5 88H43.5V117H44.5H45.5V88H44.5ZM44.5 117V116H0V117V118H44.5V117ZM0 117H1V30H0H-1V117H0ZM0 30V31H44.5V30V29H0V30ZM44.5 30H43.5V59H44.5H45.5V30H44.5Z" fill="#C778DD" mask="url(#path-1-inside-1_4_227)"/>
<mask id="path-3-outside-2_4_227" maskUnits="userSpaceOnUse" x="43.5" y="0" width="47" height="89" fill="black">
<rect fill="white" x="43.5" width="47" height="89"/>
<path d="M89 88H44.5V59H66.75V30H44.5V1H89V88Z"/>
</mask>
<path d="M89 88V89H90V88H89ZM44.5 88H43.5V89H44.5V88ZM44.5 59V58H43.5V59H44.5ZM66.75 59V60H67.75V59H66.75ZM66.75 30H67.75V29H66.75V30ZM44.5 30H43.5V31H44.5V30ZM44.5 1V0H43.5V1H44.5ZM89 1H90V0H89V1ZM89 88V87H44.5V88V89H89V88ZM44.5 88H45.5V59H44.5H43.5V88H44.5ZM44.5 59V60H66.75V59V58H44.5V59ZM66.75 59H67.75V30H66.75H65.75V59H66.75ZM66.75 30V29H44.5V30V31H66.75V30ZM44.5 30H45.5V1H44.5H43.5V30H44.5ZM44.5 1V2H89V1V0H44.5V1ZM89 1H88V88H89H90V1H89Z" fill="#C778DD" mask="url(#path-3-outside-2_4_227)"/>
</svg>
