<svg width="84" height="80" viewBox="0 0 84 80" fill="none" xmlns="http://www.w3.org/2000/svg">
<path d="M38.4274 61.5918C34.7939 60.9935 31.4026 59.7859 28.4822 57.5734C23.8631 54.074 21.7842 49.5694 22.9726 43.8919C23.4272 41.7205 24.423 41.1378 26.7062 41.4856C32.2607 42.3317 37.802 43.288 43.3788 43.9573C46.8568 44.3747 50.3893 44.4425 53.8994 44.4964C56.8206 44.5414 58.8509 46.9083 58.0333 49.7364C56.8555 54.0275 54.084 57.747 50.2466 60.1868C47.2816 62.1043 43.9801 62.4204 40.5391 61.9791C39.8298 61.8864 39.1308 61.7226 38.4274 61.5918ZM27.5753 52.448C35.8074 48.4198 43.3875 48.433 50.2798 54.9985C52.0506 53.2398 53.259 51.0251 53.7609 48.6186C53.9395 47.7679 53.6213 47.2806 52.648 47.3063C51.9843 47.3239 51.3201 47.3212 50.6556 47.2983C42.5832 47.0441 34.7449 45.274 26.8597 43.8083C25.7808 43.6077 25.2325 43.8777 25.2126 44.8616C25.1517 47.6339 25.6418 50.2658 27.5753 52.4477L27.5753 52.448ZM47.0635 57.434C43.894 52.9718 34.6315 51.596 30.2786 54.8769C34.0929 58.1762 44.192 59.7864 47.0635 57.434Z" fill="#FFE732"/>
<path d="M33.877 30.5923L30.9231 26.656C29.6038 24.8986 29.6417 25.0606 28.3228 23.3024C27.747 22.5361 27.3172 21.7369 28.2221 20.948C28.8651 20.3851 29.8252 20.7404 30.6437 21.7841C33.2666 25.1277 34.5355 26.5486 37.1471 29.9003C38.2559 31.3237 38.0116 32.6985 36.5004 33.7003C36.2537 33.8761 35.9834 34.019 35.6969 34.1249C31.6162 35.4589 27.5192 35.6278 23.4074 34.2285C23.2212 34.1471 23.0394 34.0566 22.8628 33.9572C22.0821 33.5984 21.6636 33.0242 21.833 32.179C21.8854 31.8042 22.0872 31.4642 22.3956 31.2315C22.704 30.9988 23.0945 30.8917 23.484 30.9331C25.4709 30.9962 27.4549 31.1757 29.4413 31.2046C30.8487 31.2246 32.2585 31.0765 33.6671 31.0034L33.877 30.5923Z" fill="#FFE732"/>
<path d="M54.5749 35.7391C56.7935 36.2984 58.8086 36.7913 60.814 37.3192C61.7532 37.5512 62.6768 37.8385 63.5797 38.1797C64.286 38.4593 64.8715 39.0543 64.5118 39.801C64.2827 40.2774 63.4946 40.6611 61.7007 40.6508C61.3099 40.6488 55.2296 39.5152 51.6476 37.9159C50.265 37.2987 50.3437 35.6411 51.748 34.6113C54.061 32.9155 53.5915 32.93 56.03 31.407C57.567 30.4472 59.2702 29.7334 60.9035 28.9186C61.22 28.7609 61.5672 28.5218 61.8855 28.5408C62.3676 28.57 63.785 29.3231 62.7142 30.12C61.1616 31.0654 55.0145 35.2698 54.5749 35.7391Z" fill="#FFE732"/>
<path d="M9.59521 24.2937C4.13283 35.5701 4.8072 46.5392 11.6043 56.9027C11.7815 57.1707 11.9632 57.4392 12.1465 57.6984C15.8556 62.9723 21.0229 66.764 25.1692 69.5044C26.9483 70.6833 36.7086 73.5283 39.4789 73.6416C55.9428 74.3106 68.1964 67.5523 74.7405 53.6508C76.0042 50.9243 76.9301 48.0627 77.4989 45.1251C78.8791 38.2126 77.448 29.6118 72.4151 22.4337C71.8752 21.8038 71.3415 21.1553 70.8256 20.5276C69.7064 19.1678 68.5499 17.761 67.2961 16.511C57.7221 6.94409 46.2444 4.76605 33.8623 6.59323C22.6522 8.2453 14.4877 14.2017 9.59521 24.2937ZM33.2073 10.1523C44.1871 7.96199 54.5386 9.13997 63.291 17.1058C64.8909 18.5634 68.9983 23.2537 69.6505 23.9644L69.6925 24.0088L69.7244 24.0594C72.8255 28.759 75.8402 36.8582 74.2685 44.3154C73.6059 47.5059 72.5308 50.6025 71.0684 53.5324C66.7894 61.9376 59.4673 67.2818 48.6845 69.8634C37.6913 72.6471 24.1708 65.2523 20.8095 62.0872C17.1134 58.4926 14.0834 54.3124 11.8518 49.7291C8.38689 42.364 9.15943 32.8477 13.3875 24.8025C15.3556 21.091 18.1552 17.8508 21.5833 15.3169C25.0114 12.7829 28.982 11.0188 33.2073 10.1523Z" fill="#FFE732"/>
</svg>
