<svg width="116" height="115" viewBox="0 0 116 115" fill="none" xmlns="http://www.w3.org/2000/svg">
<g clip-path="url(#clip0_11_695)">
<path d="M57.4143 85.0888C44.9415 93.9355 32.7443 102.574 20.5707 111.243C19.6768 111.88 18.995 112.791 18.1333 113.479C16.1396 115.069 14.2576 114.431 13.805 111.952C13.6308 110.964 13.6794 109.951 13.9475 108.983C15.2173 104.548 16.4295 100.086 17.9737 95.7386C20.8991 87.5056 24.0358 79.3442 27.088 71.1546C27.406 70.3013 27.7534 69.459 28.0263 68.765C19.4683 61.16 11.3664 53.3976 3.4593 45.4432C2.39585 44.3537 1.49582 43.1233 0.78571 41.7886C-0.118461 40.1122 0.510132 38.9874 2.41273 38.7423C4.29186 38.4912 6.18643 38.3659 8.08316 38.3671C15.3253 38.4085 22.5666 38.5648 29.8087 38.6042C32.6466 38.6198 35.4854 38.4403 38.4744 38.345C39.8535 34.9941 41.2056 31.7466 42.5288 28.488C46.0101 19.9141 49.4853 11.3373 52.9541 2.75771C53.0742 2.44335 53.2145 2.13659 53.374 1.83926C54.3782 0.0543805 56.2605 -0.113067 57.5169 1.54523C58.0445 2.3105 58.4739 3.13591 58.7949 4.00294C61.523 10.5262 64.121 17.1029 66.977 23.5717C68.6393 27.3356 70.7055 30.9315 72.6356 34.6955C73.461 34.6955 74.1373 34.7086 74.8162 34.6955C83.2614 34.5074 91.706 34.2703 100.152 34.1437C104.195 34.0832 108.242 34.2568 112.286 34.2684C113.608 34.2724 114.705 34.5941 115.29 35.8051C115.576 36.3821 115.656 37.0357 115.516 37.6619C115.377 38.2881 115.027 38.851 114.522 39.2614C111.863 41.7735 109.209 44.2963 106.435 46.6854C99.0735 53.0269 91.648 59.2979 84.2536 65.6043C83.5535 66.2014 82.8984 66.8485 82.2459 67.4507C82.3189 67.8396 82.423 68.2224 82.5566 68.5956C88.1851 80.3711 91.6749 92.7937 94.3357 105.467C94.7909 107.255 95.144 109.066 95.3936 110.892C95.6655 113.811 94.6562 114.22 91.7744 114.671C87.7408 115.306 85.2888 113.237 82.7259 110.954C76.0456 105.002 69.3617 99.0511 63.5245 92.2747C61.5338 89.9643 59.5748 87.6312 57.4143 85.0888ZM22.8219 102.92L23.1905 103.252C23.6758 102.918 24.1746 102.603 24.6442 102.249C34.587 94.7389 44.5311 87.2287 54.4765 79.7185C56.9467 77.8584 58.32 77.8796 60.6613 79.8627C62.2309 81.177 63.7109 82.5892 65.091 84.0911C71.5056 91.1555 78.7307 97.4029 85.8465 103.761C86.1349 104.019 86.4726 104.224 87.0407 104.639C86.9547 104.013 86.9449 103.691 86.8636 103.386C83.9465 92.4386 80.9885 81.5008 76.7934 70.9317C75.6779 68.121 75.9742 65.9301 78.4655 63.77C86.7072 56.6244 94.7779 49.2899 102.908 42.0267C103.577 41.4301 104.24 40.8289 105.293 39.8812C103.832 39.8812 102.975 39.8716 102.119 39.8812C92.8064 40.0048 83.4892 40.0022 74.1834 40.317C70.1747 40.4526 67.6585 38.8039 65.9252 35.5427C65.8854 35.4681 65.8491 35.3915 65.8154 35.3148C64.1583 31.5403 62.3976 27.8055 60.8782 23.9796C59.2952 19.9952 57.9539 15.9167 56.4853 11.8865C56.2062 11.1204 55.8271 10.389 55.3051 9.21635C54.2124 11.8617 53.1949 14.047 52.3974 16.3065C49.879 23.4441 47.3826 30.5901 44.9969 37.7705C43.4583 42.4009 39.97 44.3648 35.4067 44.0587C28.6146 43.6048 21.8079 43.341 15.0059 43.0394C13.1417 42.9567 11.2732 43.0269 9.07858 43.0269C11.4089 45.0755 13.5838 46.9532 15.7158 48.8728C21.4122 53.9957 27.118 59.1108 32.7532 64.2965C33.6568 65.1932 34.3981 66.2322 34.9458 67.3695C35.7138 68.8477 35.4548 70.0375 34.0136 70.8394C32.9593 71.4265 32.6413 72.2516 32.3192 73.1983C30.5865 78.2922 28.7865 83.3619 27.147 88.48C25.6173 93.2693 24.2568 98.1065 22.8214 102.92H22.8219Z" fill="white"/>
</g>
<defs>
<clipPath id="clip0_11_695">
<rect width="115.999" height="114.991" fill="white"/>
</clipPath>
</defs>
</svg>
