<svg width="28" height="11" viewBox="0 0 28 11" fill="none" xmlns="http://www.w3.org/2000/svg">
<path d="M22.048 5.16002C22.256 5.16002 22.4347 5.11202 22.584 5.01602C22.7334 4.92002 22.88 4.80002 23.024 4.65602C23.1734 4.51202 23.344 4.37335 23.536 4.24002C23.728 4.10135 23.968 3.99202 24.256 3.91202C24.544 3.82669 24.9067 3.79735 25.344 3.82402V5.44802C25.072 5.45335 24.848 5.50135 24.672 5.59202C24.496 5.67735 24.3334 5.78402 24.184 5.91202C24.0347 6.03469 23.872 6.16002 23.696 6.28802C23.52 6.41069 23.3014 6.51469 23.04 6.60002C22.784 6.68535 22.4534 6.72802 22.048 6.72802C21.6534 6.72802 21.32 6.67202 21.048 6.56002C20.7814 6.44269 20.552 6.30135 20.36 6.13602C20.1734 5.96535 20.0027 5.79735 19.848 5.63202C19.6987 5.46135 19.544 5.32002 19.384 5.20802C19.2294 5.09069 19.0507 5.03202 18.848 5.03202C18.6454 5.03202 18.4667 5.08535 18.312 5.19202C18.1574 5.29869 18.0027 5.43202 17.848 5.59202C17.6934 5.75202 17.5227 5.91202 17.336 6.07202C17.144 6.23202 16.9147 6.36535 16.648 6.47202C16.3814 6.57869 16.048 6.63202 15.648 6.63202C15.248 6.63202 14.912 6.58135 14.64 6.48002C14.3627 6.37869 14.1307 6.25602 13.944 6.11202C13.7574 5.96269 13.592 5.81335 13.448 5.66402C13.2987 5.51469 13.1467 5.39202 12.992 5.29602C12.8374 5.19469 12.656 5.14402 12.448 5.14402C12.24 5.14402 12.0587 5.19735 11.904 5.30402C11.744 5.41069 11.5894 5.54402 11.44 5.70402C11.2854 5.85869 11.1147 6.01602 10.928 6.17602C10.736 6.33069 10.5094 6.46135 10.248 6.56802C9.98135 6.67469 9.64802 6.72802 9.24802 6.72802C8.85335 6.72802 8.52269 6.67202 8.25602 6.56002C7.98402 6.44269 7.75469 6.30135 7.56802 6.13602C7.37602 5.96535 7.20535 5.79735 7.05602 5.63202C6.90135 5.46135 6.74669 5.32002 6.59202 5.20802C6.43202 5.09069 6.25069 5.03202 6.04802 5.03202C5.84535 5.03202 5.66669 5.08535 5.51202 5.19202C5.35735 5.29869 5.20269 5.43202 5.04802 5.59202C4.89335 5.75202 4.72269 5.91202 4.53602 6.07202C4.34402 6.23202 4.11469 6.36535 3.84802 6.47202C3.58135 6.57869 3.24802 6.63202 2.84802 6.63202C2.46402 6.63202 2.07735 6.53069 1.68802 6.32802C1.29869 6.12002 0.952019 5.85869 0.64802 5.54402C0.34402 5.22402 0.12802 4.89335 1.90735e-05 4.55202L1.40802 3.88802C1.56802 4.23469 1.78135 4.53335 2.04802 4.78402C2.30935 5.03469 2.57602 5.16002 2.84802 5.16002C3.05602 5.16002 3.23735 5.10669 3.39202 5.00002C3.54135 4.89335 3.69335 4.76002 3.84802 4.60002C4.00269 4.44002 4.17602 4.28002 4.36802 4.12002C4.55469 3.96002 4.78402 3.82669 5.05602 3.72002C5.32269 3.61335 5.65335 3.56002 6.04802 3.56002C6.44802 3.56002 6.78135 3.61335 7.04802 3.72002C7.31469 3.82669 7.54402 3.96002 7.73602 4.12002C7.92269 4.28002 8.09335 4.44002 8.24802 4.60002C8.40269 4.76002 8.55735 4.89335 8.71202 5.00002C8.86669 5.10669 9.04535 5.16002 9.24802 5.16002C9.45069 5.16002 9.62935 5.10669 9.78402 5.00002C9.93869 4.89335 10.0934 4.76002 10.248 4.60002C10.4027 4.44002 10.576 4.28002 10.768 4.12002C10.9547 3.96002 11.184 3.82669 11.456 3.72002C11.7227 3.61335 12.0534 3.56002 12.448 3.56002C12.8534 3.56002 13.192 3.61335 13.464 3.72002C13.736 3.82669 13.9654 3.96002 14.152 4.12002C14.3387 4.28002 14.5067 4.44002 14.656 4.60002C14.8054 4.76002 14.9574 4.89335 15.112 5.00002C15.2614 5.10669 15.44 5.16002 15.648 5.16002C15.856 5.16002 16.0374 5.10669 16.192 5.00002C16.3414 4.89335 16.4934 4.76002 16.648 4.60002C16.8027 4.44002 16.976 4.28002 17.168 4.12002C17.3547 3.96002 17.584 3.82669 17.856 3.72002C18.1227 3.61335 18.4534 3.56002 18.848 3.56002C19.2427 3.56002 19.5734 3.61335 19.84 3.72002C20.112 3.82669 20.3414 3.96002 20.528 4.12002C20.72 4.28002 20.8934 4.44002 21.048 4.60002C21.2027 4.76002 21.3574 4.89335 21.512 5.00002C21.6667 5.10669 21.8454 5.16002 22.048 5.16002ZM22.728 2.09808e-05L27.264 5.06402L22.728 10.128L21.48 9.06402L23.328 7.04002C23.584 6.76269 23.8107 6.53069 24.008 6.34402C24.2107 6.15202 24.4374 5.97869 24.688 5.82402V4.30402C24.4374 4.14935 24.2107 3.97869 24.008 3.79202C23.8107 3.60002 23.584 3.36535 23.328 3.08802L21.48 1.06402L22.728 2.09808e-05Z" fill="white"/>
</svg>
