<svg width="62" height="64" viewBox="0 0 62 64" fill="none" xmlns="http://www.w3.org/2000/svg">
<path d="M43.7187 18.7062C41.9995 16.9702 39.9519 15.5937 37.6953 14.6569C35.4387 13.7202 33.0183 13.2419 30.575 13.25C20.3375 13.25 11.9938 21.5937 11.9938 31.8312C11.9938 35.1125 12.8563 38.3 14.4688 41.1125L11.8438 50.75L21.6875 48.1625C24.4062 49.6437 27.4625 50.4312 30.575 50.4312C40.8125 50.4312 49.1562 42.0875 49.1562 31.85C49.1562 26.8812 47.225 22.2125 43.7187 18.7062ZM30.575 47.2812C27.8 47.2812 25.0812 46.5312 22.7 45.125L22.1375 44.7875L16.2875 46.325L17.8437 40.625L17.4688 40.0437C15.9267 37.582 15.108 34.7361 15.1062 31.8312C15.1062 23.3187 22.0437 16.3812 30.5562 16.3812C34.6812 16.3812 38.5625 17.9937 41.4687 20.9187C42.908 22.351 44.0486 24.0547 44.8243 25.9312C45.6 27.8077 45.9954 29.8195 45.9875 31.85C46.025 40.3625 39.0875 47.2812 30.575 47.2812ZM39.05 35.7312C38.5812 35.5062 36.2937 34.3812 35.8812 34.2125C35.45 34.0625 35.15 33.9875 34.8312 34.4375C34.5125 34.9062 33.6312 35.9562 33.3687 36.2562C33.1062 36.575 32.825 36.6125 32.3562 36.3687C31.8875 36.1437 30.3875 35.6375 28.625 34.0625C27.2375 32.825 26.3187 31.3062 26.0375 30.8375C25.775 30.3687 26 30.125 26.2437 29.8812C26.45 29.675 26.7125 29.3375 26.9375 29.075C27.1625 28.8125 27.2562 28.6062 27.4062 28.3062C27.5562 27.9875 27.4812 27.725 27.3687 27.5C27.2562 27.275 26.3187 24.9875 25.9437 24.05C25.5687 23.15 25.175 23.2625 24.8937 23.2437H23.9937C23.675 23.2437 23.1875 23.3562 22.7562 23.825C22.3437 24.2937 21.1437 25.4187 21.1437 27.7062C21.1437 29.9937 22.8125 32.2062 23.0375 32.5062C23.2625 32.825 26.3187 37.5125 30.9687 39.5187C32.075 40.0062 32.9375 40.2875 33.6125 40.4937C34.7187 40.85 35.7312 40.7937 36.5375 40.6812C37.4375 40.55 39.2937 39.5562 39.6687 38.4687C40.0625 37.3812 40.0625 36.4625 39.9312 36.2562C39.8 36.05 39.5187 35.9562 39.05 35.7312Z" fill="#E6E6E6"/>
<path d="M31 0.5C47.8298 0.5 61.5 14.5879 61.5 32C61.5 49.4121 47.8298 63.5 31 63.5C14.1702 63.5 0.5 49.4121 0.5 32C0.5 14.5879 14.1702 0.5 31 0.5Z" stroke="#C778DD"/>
</svg>
